<?xml version="1.0" encoding="UTF-8" standalone="no"?>
<svg
   xmlns:dc="http://purl.org/dc/elements/1.1/"
   xmlns:cc="http://creativecommons.org/ns#"
   xmlns:rdf="http://www.w3.org/1999/02/22-rdf-syntax-ns#"
   xmlns:svg="http://www.w3.org/2000/svg"
   xmlns="http://www.w3.org/2000/svg"
   xmlns:sodipodi="http://sodipodi.sourceforge.net/DTD/sodipodi-0.dtd"
   xmlns:inkscape="http://www.inkscape.org/namespaces/inkscape"
   inkscape:version="1.0 (4035a4f, 2020-05-01)"
   sodipodi:docname="logo.svg"
   id="svg20"
   version="1.1"
   viewBox="0 0 179 40"
   height="40px"
   width="179px">
  <metadata
     id="metadata26">
    <rdf:RDF>
      <cc:Work
         rdf:about="">
        <dc:format>image/svg+xml</dc:format>
        <dc:type
           rdf:resource="http://purl.org/dc/dcmitype/StillImage" />
        <dc:title>Group 7</dc:title>
      </cc:Work>
    </rdf:RDF>
  </metadata>
  <defs
     id="defs24" />
  <sodipodi:namedview
     inkscape:current-layer="Group-7"
     inkscape:window-maximized="0"
     inkscape:window-y="23"
     inkscape:window-x="0"
     inkscape:cy="22.024635"
     inkscape:cx="93.008709"
     inkscape:zoom="3.7374012"
     inkscape:pagecheckerboard="false"
     showgrid="false"
     id="namedview22"
     inkscape:window-height="753"
     inkscape:window-width="1384"
     inkscape:pageshadow="2"
     inkscape:pageopacity="0"
     guidetolerance="10"
     gridtolerance="10"
     objecttolerance="10"
     borderopacity="1"
     bordercolor="#666666"
     pagecolor="#6b3388" />
  <!-- Generator: Sketch 53 (72520) - https://sketchapp.com -->
  <title
     id="title10">Group 7</title>
  <desc
     id="desc12">Created with Sketch.</desc>
  <g
     fill-rule="evenodd"
     fill="none"
     stroke-width="1"
     stroke="none"
     id="Symbols">
    <g
       fill="#FFFFFF"
       id="Group-7">
      <g
         style="font-style:normal;font-weight:normal;font-size:26.6667px;line-height:1.25;font-family:sans-serif;fill:#000000;fill-opacity:1;stroke:none"
         id="text30"
         aria-label="Gesfabrik">
        <path
           id="path867"
           style="font-style:normal;font-variant:normal;font-weight:normal;font-stretch:normal;font-size:26.6667px;font-family:sans-serif;-inkscape-font-specification:sans-serif;fill:#ffffff;fill-opacity:1"
           d="m 61.597572,29.009883 q -1.588544,0.729168 -3.476567,1.276044 -1.875002,0.533854 -3.632817,0.533854 -2.265628,0 -4.153651,-0.625 -1.888023,-0.625001 -3.21615,-1.875003 -1.341148,-1.263022 -2.070315,-3.151045 -0.729168,-1.901044 -0.729168,-4.44011 0,-4.648443 2.708337,-7.330739 2.721358,-2.695315 7.460947,-2.695315 1.653648,0 3.3724,0.403646 1.731773,0.390625 3.723963,1.341147 v 3.0599 h -0.234375 q -0.403647,-0.3125 -1.171877,-0.820313 -0.76823,-0.507814 -1.510418,-0.846356 -0.898439,-0.403646 -2.044274,-0.664063 -1.132814,-0.273438 -2.578128,-0.273438 -3.255212,0 -5.156256,2.096357 -1.888024,2.083336 -1.888024,5.651049 0,3.763025 1.979169,5.859382 1.97917,2.083336 5.390632,2.083336 1.250002,0 2.486983,-0.247396 1.250001,-0.247396 2.187502,-0.638022 v -4.75261 H 53.850166 V 20.68956 h 7.747406 z" />
        <path
           id="path869"
           style="font-style:normal;font-variant:normal;font-weight:normal;font-stretch:normal;font-size:26.6667px;font-family:sans-serif;-inkscape-font-specification:sans-serif;fill:#ffffff;fill-opacity:1"
           d="M 78.081967,23.423939 H 67.365808 q 0,1.341147 0.403646,2.343753 0.403646,0.989584 1.106772,1.627606 0.677084,0.625001 1.601565,0.937501 0.937501,0.312501 2.057294,0.312501 1.484377,0 2.981775,-0.585939 1.510418,-0.598959 2.14844,-1.171876 h 0.130208 v 2.669274 q -1.23698,0.520834 -2.526045,0.872397 -1.289064,0.351563 -2.708336,0.351563 -3.619797,0 -5.651049,-1.953128 -2.031253,-1.966148 -2.031253,-5.572923 0,-3.567713 1.940107,-5.66407 1.953127,-2.096357 5.130215,-2.096357 2.942712,0 4.531256,1.718752 1.601564,1.718753 1.601564,4.882819 z m -2.382815,-1.875003 q -0.01302,-1.927085 -0.976564,-2.981774 -0.950522,-1.054689 -2.90365,-1.054689 -1.966148,0 -3.138025,1.158856 -1.158855,1.158855 -1.315105,2.877607 z" />
        <path
           id="path871"
           style="font-style:normal;font-variant:normal;font-weight:normal;font-stretch:normal;font-size:26.6667px;font-family:sans-serif;-inkscape-font-specification:sans-serif;fill:#ffffff;fill-opacity:1"
           d="m 92.183548,26.249463 q 0,1.99219 -1.653648,3.268233 -1.640627,1.276044 -4.492193,1.276044 -1.614586,0 -2.968754,-0.377605 -1.341148,-0.390625 -2.252607,-0.846355 v -2.747399 h 0.130208 q 1.158856,0.872397 2.578129,1.393231 1.419272,0.507813 2.721357,0.507813 1.614585,0 2.526045,-0.520834 0.911459,-0.520834 0.911459,-1.640627 0,-0.859377 -0.494792,-1.302085 -0.494792,-0.442709 -1.901044,-0.75521 -0.520834,-0.117187 -1.367189,-0.273438 -0.833335,-0.15625 -1.52344,-0.338542 -1.914064,-0.507813 -2.721357,-1.484376 -0.794272,-0.989585 -0.794272,-2.421879 0,-0.898438 0.364584,-1.69271 0.377604,-0.794272 1.132814,-1.419273 0.729167,-0.61198 1.84896,-0.963543 1.132814,-0.364583 2.526045,-0.364583 1.302085,0 2.630212,0.325521 1.341147,0.3125 2.226565,0.76823 v 2.617191 h -0.130208 q -0.937501,-0.690105 -2.278649,-1.158856 -1.341148,-0.481771 -2.630212,-0.481771 -1.341147,0 -2.265628,0.520834 -0.92448,0.507813 -0.92448,1.523439 0,0.898439 0.559897,1.354169 0.546875,0.455729 1.770835,0.742188 0.677084,0.15625 1.510419,0.3125 0.846355,0.156251 1.406252,0.286459 1.705731,0.390626 2.630211,1.341148 0.924481,0.963543 0.924481,2.552086 z" />
        <path
           id="path873"
           style="font-style:normal;font-variant:normal;font-weight:normal;font-stretch:normal;font-size:26.6667px;font-family:sans-serif;-inkscape-font-specification:sans-serif;fill:#ffffff;fill-opacity:1"
           d="m 103.52471,12.551529 h -0.13021 q -0.40365,-0.117187 -1.05469,-0.234375 -0.65104,-0.130209 -1.14584,-0.130209 -1.575519,0 -2.291666,0.703126 -0.703126,0.690105 -0.703126,2.513024 v 0.494793 h 4.414072 v 2.057294 h -4.335947 v 12.486995 h -2.44792 V 17.955182 h -1.653648 v -2.057294 h 1.653648 v -0.481772 q 0,-2.591149 1.289064,-3.971359 1.289065,-1.393231 3.723963,-1.393231 0.82031,0 1.47136,0.07813 0.66406,0.07813 1.21094,0.182292 z" />
        <path
           id="path875"
           style="font-style:normal;font-variant:normal;font-weight:normal;font-stretch:normal;font-size:26.6667px;font-family:sans-serif;-inkscape-font-specification:sans-serif;fill:#ffffff;fill-opacity:1"
           d="m 116.37629,30.442177 h -2.4349 v -1.549481 q -0.32552,0.221354 -0.88542,0.625 -0.54687,0.390626 -1.06771,0.625001 -0.61198,0.29948 -1.40625,0.494793 -0.79427,0.208333 -1.86198,0.208333 -1.96615,0 -3.33334,-1.302085 -1.36719,-1.302085 -1.36719,-3.320317 0,-1.653647 0.70313,-2.669274 0.71614,-1.028647 2.03125,-1.614585 1.32813,-0.585938 3.19011,-0.794272 1.86198,-0.208334 3.9974,-0.3125 v -0.377605 q 0,-0.833334 -0.29948,-1.38021 -0.28646,-0.546876 -0.83334,-0.859376 -0.52083,-0.29948 -1.25,-0.403646 -0.72916,-0.104167 -1.52344,-0.104167 -0.96354,0 -2.14844,0.260417 -1.18489,0.247396 -2.44792,0.729167 h -0.1302 v -2.486982 q 0.71614,-0.195313 2.07031,-0.429688 1.35417,-0.234375 2.66927,-0.234375 1.53646,0 2.66928,0.260417 1.14583,0.247396 1.97917,0.859376 0.82031,0.598959 1.25,1.549481 0.42969,0.950522 0.42969,2.356774 z m -2.4349,-3.580734 v -4.049484 q -1.11979,0.0651 -2.64323,0.195313 -1.51042,0.130208 -2.39584,0.377604 -1.05469,0.29948 -1.70573,0.937501 -0.65104,0.625001 -0.65104,1.731773 0,1.250002 0.75521,1.888024 0.7552,0.625 2.30469,0.625 1.28906,0 2.35677,-0.494792 1.06771,-0.507813 1.97917,-1.210939 z" />
        <path
           id="path877"
           style="font-style:normal;font-variant:normal;font-weight:normal;font-stretch:normal;font-size:26.6667px;font-family:sans-serif;-inkscape-font-specification:sans-serif;fill:#ffffff;fill-opacity:1"
           d="m 133.91537,23.059355 q 0,1.822919 -0.52083,3.281254 -0.50781,1.458335 -1.38021,2.44792 -0.92448,1.028647 -2.03125,1.549481 -1.10678,0.507813 -2.4349,0.507813 -1.23698,0 -2.16146,-0.299479 -0.92448,-0.286459 -1.82292,-0.781251 l -0.15625,0.677084 h -2.29167 V 10.181735 h 2.44792 v 7.239592 q 1.02864,-0.846355 2.1875,-1.38021 1.15886,-0.546876 2.60417,-0.546876 2.57813,0 4.0625,1.979169 1.4974,1.97917 1.4974,5.585945 z m -2.52604,0.0651 q 0,-2.60417 -0.85938,-3.945317 -0.85937,-1.354169 -2.77344,-1.354169 -1.06771,0 -2.16146,0.468751 -1.09375,0.45573 -2.03125,1.184897 v 8.333344 q 1.04166,0.468751 1.78385,0.651043 0.75521,0.182292 1.70573,0.182292 2.03126,0 3.17709,-1.328127 1.15886,-1.341148 1.15886,-4.192714 z" />
        <path
           id="path879"
           style="font-style:normal;font-variant:normal;font-weight:normal;font-stretch:normal;font-size:26.6667px;font-family:sans-serif;-inkscape-font-specification:sans-serif;fill:#ffffff;fill-opacity:1"
           d="m 146.80601,18.567162 h -0.13021 q -0.54687,-0.130209 -1.06771,-0.182292 -0.50781,-0.0651 -1.21094,-0.0651 -1.13281,0 -2.1875,0.507813 -1.05469,0.494792 -2.03125,1.289064 v 10.325534 h -2.44792 V 15.897888 h 2.44792 v 2.14844 q 1.45833,-1.171877 2.56511,-1.653648 1.11979,-0.494792 2.27864,-0.494792 0.63803,0 0.92448,0.03906 0.28646,0.02604 0.85938,0.117188 z" />
        <path
           id="path881"
           style="font-style:normal;font-variant:normal;font-weight:normal;font-stretch:normal;font-size:26.6667px;font-family:sans-serif;-inkscape-font-specification:sans-serif;fill:#ffffff;fill-opacity:1"
           d="m 151.76696,13.462989 h -2.76043 v -2.539066 h 2.76043 z m -0.15626,16.979188 h -2.44791 V 15.897888 h 2.44791 z" />
        <path
           id="path883"
           style="font-style:normal;font-variant:normal;font-weight:normal;font-stretch:normal;font-size:26.6667px;font-family:sans-serif;-inkscape-font-specification:sans-serif;fill:#ffffff;fill-opacity:1"
           d="m 169.68364,30.442177 h -3.22917 l -5.83334,-6.367196 -1.58854,1.510419 v 4.856777 h -2.44792 V 10.181735 h 2.44792 v 12.994808 l 7.07032,-7.278655 h 3.08594 l -6.75782,6.718758 z" />
      </g>
      <path
         d="M 40.530741,19.927614 A 19.42098,18.914345 0 0 1 21.10976,38.841959 19.42098,18.914345 0 0 1 1.6887798,19.927614 19.42098,18.914345 0 0 1 21.10976,1.0132694 19.42098,18.914345 0 0 1 40.530741,19.927614 Z"
         style="fill:#ffffff;fill-opacity:1"
         id="path855" />
      <g
         style="font-style:normal;font-weight:normal;font-size:21.7272px;line-height:1.25;font-family:sans-serif;fill:#eeeeee;fill-opacity:1;stroke:none;stroke-width:0.543181"
         id="text859"
         transform="scale(0.94029786,1.0634928)"
         aria-label="GF">
        <path
           id="path861"
           style="fill:#eeeeee;fill-opacity:1;stroke-width:0.543181"
           d="m 22.744339,26.253178 q -1.294296,0.594103 -2.832599,1.03968 -1.527694,0.434969 -2.959907,0.434969 -1.845963,0 -3.384265,-0.509232 -1.538303,-0.509231 -2.62042,-1.527693 Q 9.8544231,24.66183 9.26032,23.123527 8.6662169,21.574616 8.6662169,19.505864 q 0,-3.787408 2.2066691,-5.972858 2.217277,-2.19606 6.078947,-2.19606 1.347341,0 2.747727,0.328879 1.410995,0.318269 3.03417,1.092725 v 2.493111 h -0.190962 q -0.328878,-0.254615 -0.954808,-0.668366 -0.625931,-0.41375 -1.230643,-0.689584 -0.73202,-0.328878 -1.66561,-0.541058 -0.922982,-0.222789 -2.100579,-0.222789 -2.652246,0 -4.201158,1.708047 -1.538302,1.697437 -1.538302,4.604299 0,3.065996 1.612565,4.774043 1.612566,1.697437 4.39212,1.697437 1.018462,0 2.026316,-0.20157 1.018462,-0.201571 1.782309,-0.519841 V 21.32 h -4.232985 v -1.845963 h 6.312346 z" />
        <path
           id="path863"
           style="fill:#eeeeee;fill-opacity:1;stroke-width:0.543181"
           d="m 36.504191,13.49057 h -7.988565 v 4.455773 h 6.864013 v 1.867181 h -6.864013 v 7.606642 H 26.415047 V 11.623389 h 10.089144 z" />
      </g>
    </g>
  </g>
</svg>
